<svg id="Component_1_1" data-name="Component 1 – 1" xmlns="http://www.w3.org/2000/svg" width="166.399" height="32.278" viewBox="0 0 166.399 32.278">
  <path id="Path_2" data-name="Path 2" d="M11.016,32.278V17.6H4.372V32.278H0V0H24.089q6.658,0,10.327,4.724A17.418,17.418,0,0,1,37.69,15.645a21.762,21.762,0,0,1-1.933,9.294q-3.406,7.339-11.712,7.339Zm4.394-3.735h7.8a12.08,12.08,0,0,0,3.648-.462,8.025,8.025,0,0,0,4.175-3.3A13.512,13.512,0,0,0,32.9,19.776a19.128,19.128,0,0,0,.329-3.384q0-6-2.384-9.317c-1.589-2.211-4.149-3.1-7.679-3.1H15.41v9.776h3.46a4.5,4.5,0,1,1-.1,3.846H15.41ZM4.372,13.755h6.644v-9.8H4.372Z" fill="#3c988f"/>
  <path id="Path_3" data-name="Path 3" d="M17.593-17.769H6.768V-12.8h9.478v3.75H6.768V0H2.285V-21.562H17.593Zm1.616-3.823h4.482V0H19.209ZM44.306,0H39.795L30.976-15.337V0h-4.2V-21.592H31.5L40.1-6.519V-21.592h4.2ZM56.762,0h-9.3V-21.592h9.3a11.349,11.349,0,0,1,3.34.469,7.128,7.128,0,0,1,3.677,2.739A9.609,9.609,0,0,1,65.317-14.9a16.736,16.736,0,0,1,.41,3.574A14.351,14.351,0,0,1,64-4.028,7.8,7.8,0,0,1,56.762,0Zm3.354-16.084Q59.077-17.842,56-17.842H51.84V-3.75H56A4.493,4.493,0,0,0,60.454-6.9a11.108,11.108,0,0,0,.688-4.116A10.238,10.238,0,0,0,60.117-16.084Zm20.6,11.646H72.763L71.269,0H66.552l7.705-21.592h5.1L87,0H82.109Zm-1.26-3.721-2.7-8.5-2.783,8.5ZM96.527-3.12a7.945,7.945,0,0,0,2.593-.352,2.506,2.506,0,0,0,1.89-2.5,1.848,1.848,0,0,0-.937-1.655,10.081,10.081,0,0,0-2.944-1.011l-2.285-.513a14.44,14.44,0,0,1-4.658-1.655A5.265,5.265,0,0,1,88-15.483,6.24,6.24,0,0,1,90.111-20.3q2.109-1.919,6.2-1.919a9.421,9.421,0,0,1,5.823,1.809,6.459,6.459,0,0,1,2.527,5.251h-4.336a3.1,3.1,0,0,0-1.7-2.769A5.7,5.7,0,0,0,96-18.472a4.9,4.9,0,0,0-2.783.7,2.239,2.239,0,0,0-1.04,1.963A1.858,1.858,0,0,0,93.2-14.077a12.552,12.552,0,0,0,2.813.894l3.721.894a9.619,9.619,0,0,1,3.691,1.567,5.279,5.279,0,0,1,1.934,4.409A6.223,6.223,0,0,1,103.1-1.4,9.482,9.482,0,0,1,96.7.557,10.371,10.371,0,0,1,90.067-1.37a6.4,6.4,0,0,1-2.417-5.3h4.307a4.434,4.434,0,0,0,.806,2.212A4.636,4.636,0,0,0,96.527-3.12Zm24,3.12V-9.639h-8.437V0h-4.468V-21.592h4.468v8.232h8.438v-8.232h4.482V0Z" transform="translate(41.39 27.139)" fill="#3c988f"/>
</svg>
