<svg xmlns="http://www.w3.org/2000/svg" width="37.69" height="32.278" viewBox="0 0 37.69 32.278">
  <path id="Path_4" data-name="Path 4" d="M11.016,32.278V17.6H4.372V32.278H0V0H24.089q6.658,0,10.327,4.724A17.418,17.418,0,0,1,37.69,15.645a21.762,21.762,0,0,1-1.933,9.294q-3.406,7.339-11.712,7.339Zm4.394-3.735h7.8a12.08,12.08,0,0,0,3.648-.462,8.025,8.025,0,0,0,4.175-3.3A13.512,13.512,0,0,0,32.9,19.776a19.128,19.128,0,0,0,.329-3.384q0-6-2.384-9.317c-1.589-2.211-4.149-3.1-7.679-3.1H15.41v9.776h3.46a4.5,4.5,0,1,1-.1,3.846H15.41ZM4.372,13.755h6.644v-9.8H4.372Z" fill="#fff"/>
</svg>
